<?xml version="1.0" encoding="utf-8"?>
<!-- Uploaded to: SVG Repo, www.svgrepo.com, Generator: SVG Repo Mixer Tools -->
<svg width="800px" height="800px" viewBox="-13.75 0 275.497 275.497" xmlns="http://www.w3.org/2000/svg"><defs><style>.a{fill:#cfcfcf;}.b{fill:#ffffff;}.c{fill:#3f88c9;}.d{fill:#211715;}.e{fill:#7a7473;}</style></defs><path class="a" d="M135.262,180.555c-3.15-1.837-9.337-5.478-16.487-9.691a1.09,1.09,0,0,1-.537-.936v-11.2l-51.45,29.744v10.263a1.09,1.09,0,0,0,.543.939c8.432,4.9,15.584,9.057,18.466,10.723a1.056,1.056,0,0,0,1.084-.007c6.012-3.6,33.831-19.57,48.38-27.968A1.078,1.078,0,0,0,135.262,180.555Z"/><path class="b" d="M167.073,3.921c0,28.635,0,84.982.007,125.428a1.974,1.974,0,0,1-.992,1.72C124.505,155.1,46.751,200.059,6.531,223.307a2.98,2.98,0,0,1-4.475-2.582c0-32.761-.006-86.636-.012-123.149A2.971,2.971,0,0,1,3.535,95c36.675-21.2,141.471-81.78,160.542-92.8A2,2,0,0,1,167.073,3.921Z"/><path class="a" d="M8.881,221.948l-6.825,3.945c0-7.209,0-15.728,0-25.045,38.952-22.515,122.119-70.6,165.019-95.393,0,8.753,0,17.207,0,25.04C126.537,153.928,50.049,198.153,8.881,221.948Z"/><path class="c" d="M113.621,115.5l16.857-9.746c0-12.086-.006-30.055-.009-59.541l-16.854,9.747C113.615,57.188,113.619,96.505,113.621,115.5Z"/><path class="c" d="M79.428,135.388l16.858-9.746c0-12.086-.007-17.459-.009-46.945L79.422,88.444C79.422,89.677,79.426,116.4,79.428,135.388Z"/><path class="c" d="M45.437,155.083l16.857-9.746c0-12.086-.006-.127-.009-29.613L45.431,125.47C45.431,126.7,45.435,136.093,45.437,155.083Z"/><path class="d" d="M165.073,3.921q0,33.5,0,66.991,0,19.429,0,38.859,0,8.889,0,17.778a6.468,6.468,0,0,1,.009,1.784c-.184.272-.887.516-1.177.683l-2.873,1.661-6.045,3.494q-28.92,16.716-57.837,33.435L35.97,203.979,10.389,218.766,7.567,220.4c-.685.4-1.712,1.3-2.5,1.316-.805.011-.98-.637-1.009-1.292-.059-1.347,0-2.71,0-4.058v-16.5q0-37.9-.008-75.8,0-9.054,0-18.108V101.7a26.557,26.557,0,0,1,0-4.126c.2-1.192,2.533-2.027,3.512-2.593q9.337-5.4,18.673-10.793Q50.771,70,75.313,55.816l50.565-29.231L161.185,6.174l2.424-1.4L164.6,4.2a3.65,3.65,0,0,0,.49-.283c.018-.014-.015-.023-.013,0,.2,2.55,4.2,2.571,4,0A4.067,4.067,0,0,0,162.827.6c-.752.415-1.488.86-2.232,1.29l-6.144,3.552-17.7,10.232L87.754,44,35.488,74.217l-21.8,12.6L4.881,91.909C3.052,92.966,1.034,93.863.3,96.02a13.583,13.583,0,0,0-.252,4.292v4.572q0,38.733.008,77.467,0,17.642,0,35.281c0,2.707-.317,5.7,2.359,7.33s5.053.113,7.4-1.244L22,216.675l59.693-34.508q31.089-17.975,62.179-35.946l13.141-7.6,6.288-3.635c1.991-1.151,5.136-2.264,5.677-4.759a21.9,21.9,0,0,0,.1-4.5V120.91q0-4.591,0-9.185,0-9.786,0-19.572,0-37.421,0-74.84V3.921C169.073,1.347,165.073,1.343,165.073,3.921Z"/><path class="d" d="M3.068,202.575l27.2-15.725q16.766-9.691,33.53-19.384,18.132-10.481,36.262-20.963l34.9-20.175,29.94-17.305,3.192-1.845c2.228-1.287.216-4.745-2.019-3.454l-29.059,16.8-34.487,19.937-36.318,21L32.156,181.139l-28.194,16.3-2.913,1.684c-2.228,1.288-.216,4.746,2.019,3.454Z"/><path class="d" d="M114.63,117.222l8.975-5.189,4.158-2.4,2.28-1.318c.82-.474,1.873-.866,2.263-1.792a7.23,7.23,0,0,0,.172-2.66v-2.441q0-2.672,0-5.342,0-13.954,0-27.908l0-21.96a2.019,2.019,0,0,0-3.009-1.727l-11.526,6.665c-1.76,1.018-3.646,1.94-5.329,3.082a2.324,2.324,0,0,0-.99,2.084c-.065,2.662,0,5.333,0,8q0,16.534,0,33.071,0,9.057,0,18.116c0,2.574,4,2.578,4,0l-.006-53.8V55.955l-.991,1.726,16.854-9.746-3.009-1.727q0,25.317.008,50.635,0,4.452,0,8.906l.991-1.727-16.858,9.746C110.383,115.056,112.4,118.514,114.63,117.222Z"/><path class="d" d="M80.438,137.115l8.975-5.189,4.157-2.4,2.281-1.318c.82-.474,1.873-.866,2.263-1.792.528-1.253.172-3.292.171-4.655q0-2,0-4,0-9.732-.005-19.464,0-9.8,0-19.6a2.02,2.02,0,0,0-3.01-1.727c-5.479,3.169-11.1,6.171-16.471,9.525-1.291.807-1.374,1.676-1.374,2.984v3.142l0,25.757q0,8.505,0,17.01c0,2.574,4,2.578,4,0q0-21.384,0-42.767,0-2.088,0-4.177l-.99,1.726,16.854-9.746L94.277,78.7q0,19.8.007,39.6,0,3.671,0,7.341l.991-1.727q-8.43,4.872-16.858,9.746C76.191,134.949,78.2,138.407,80.438,137.115Z"/><path class="d" d="M46.446,156.81l8.975-5.189,4.158-2.4,2.28-1.319c.82-.474,1.873-.866,2.263-1.792.465-1.1.172-2.833.172-4.041q0-1.073,0-2.146,0-3.924-.005-7.847,0-8.175,0-16.349A2.018,2.018,0,0,0,61.276,114l-12.938,7.481-2.955,1.709c-1,.578-1.878,1.063-1.952,2.336-.021.347,0,.7,0,1.048q0,6.847,0,13.694,0,7.41,0,14.818c0,2.574,4,2.579,4,0q0-14.806-.006-29.613L46.44,127.2,63.3,117.451l-3.01-1.727q0,12.213.008,24.425,0,2.595,0,5.188l.991-1.727q-8.428,4.873-16.858,9.746C42.2,154.645,44.211,158.1,46.446,156.81Z"/><path class="d" d="M64.788,188.741v8.433c0,1.525-.093,3.032,1.308,4.053a49.8,49.8,0,0,0,4.388,2.594l4.22,2.452q3.491,2.028,6.982,4.055c1.866,1.083,3.984,2.906,6.2,1.79,2.43-1.221,4.744-2.788,7.1-4.153q12.442-7.222,24.921-14.386,6.309-3.633,12.618-7.269c1.793-1.034,5.079-2.172,5.241-4.55.177-2.595-2.659-3.611-4.532-4.709q-4.251-2.494-8.5-5l-2.424-1.427-1.253-.738-.635-.375q-.451-.386-.187.414c-.12-.117,0-1.012,0-1.155v-9.328c0-2.574-4-2.578-4,0,0,3.47-.183,6.988,0,10.452.117,2.207,1.958,2.948,3.641,3.939l5.872,3.457q2.451,1.441,4.9,2.882l2.1,1.233c.295.172.588.378.9.524.961.458-.224-.246.116-.7l.718-.717a54.91,54.91,0,0,1-6.212,3.628q-3.549,2.046-7.1,4.089-7.381,4.251-14.761,8.5-6.507,3.753-13,7.517-2.427,1.409-4.849,2.823-.856.5-1.712,1.006a4.727,4.727,0,0,0-.578.343,2.577,2.577,0,0,0-.306.182q1.079.147.532-.113l-.337-.195q-3.671-2.126-7.336-4.258l-5.13-2.98a50.694,50.694,0,0,1-5.581-3.287l.717.717c.066.086-.023.375-.044-.131-.013-.333,0-.669,0-1v-8.617c0-2.574-4-2.578-4,0Z"/><path class="d" d="M18.66,123.352q19.109-17.72,38.132-35.532c1.878-1.769-.955-4.593-2.829-2.828Q34.994,102.86,15.831,120.524c-1.891,1.754.942,4.578,2.829,2.828Z"/><path class="d" d="M87.216,203.2c10.029-5.87,20.134-11.611,30.187-17.438,2.008-1.164,4.018-2.324,6.012-3.511,2.21-1.315.2-4.774-2.019-3.453-9.924,5.905-19.991,11.576-29.992,17.351-2.071,1.2-4.143,2.389-6.207,3.6-2.22,1.3-.209,4.759,2.019,3.454Z"/><path class="b" d="M244.56,257.081l-1-.54h0c-3.164,1.524-13.136,1.711-15.025.345-3.606,4.147-8.8,4.747-13.478,4.119a7.929,7.929,0,0,1-1.879-.376,13.111,13.111,0,0,1-4.53-2.641c-.013-.013-.031-.02-.043-.034l-.575.053c-.771-.463-3.122.014-4.086,1.464s-.929,4.243-.385,5.9c1.186,3.6,4.657,5.432,8.227,6.719a21.527,21.527,0,0,0,11.544,1.028,6.026,6.026,0,0,0,3.849-2.99,7.929,7.929,0,0,0,.879-2.816l6.141,1.412a15.565,15.565,0,0,0,3.832.492,18.167,18.167,0,0,0,1.833-.106,6.079,6.079,0,0,0,4.575-2.479,7.9,7.9,0,0,0,.9-3.765C245.373,261.549,244.518,258.393,244.56,257.081Z"/><path class="b" d="M227.464,120.941a6.61,6.61,0,0,1-.925,2.241,9.689,9.689,0,0,1-3.662,3.211,19.471,19.471,0,0,0,12.395,9.485,10.3,10.3,0,0,0-2.282,3.006,23.6,23.6,0,0,0-6.659.514c-5.508,1.071-13.1,3.571-15.086,4.861a14.483,14.483,0,0,0-3.306,3.092l1.272-4.1a7.61,7.61,0,0,0,.03-4.626,7,7,0,0,0-3.132-3.459l.526-2.838c-.011-.009-.021-.02-.031-.03a18.53,18.53,0,0,1-4.838-9.539,23.544,23.544,0,0,1,4.12-18.329,22.768,22.768,0,0,1,2.948-3.269,40.109,40.109,0,0,0,13.236,13.89,4.482,4.482,0,0,1,5,2.206A5.606,5.606,0,0,1,227.464,120.941Z"/><path class="b" d="M204.012,134.339a7.452,7.452,0,0,0-3.383-.05,6.759,6.759,0,0,0-5.277,7.222l.136,1.992a2.525,2.525,0,0,1,.867.2c2.082.983,7.969,4.259,9.51,5.261l.6.375a19.484,19.484,0,0,1,4.128-4.617l-1.384-1.471a7.61,7.61,0,0,0,.03-4.626A7.448,7.448,0,0,0,204.012,134.339Z"/><path class="e" d="M219.48,95.7a22.742,22.742,0,0,0-10.653,5.462,40.228,40.228,0,0,0,13.243,13.884,4.482,4.482,0,0,1,5,2.206,6.138,6.138,0,0,1-.528,5.928,9.689,9.689,0,0,1-3.662,3.211,19.472,19.472,0,0,0,12.392,9.485c.095-.1.193-.2.295-.316,2.778-3.056,4.779-5.185,6.479-8.187a22.081,22.081,0,0,0,2.75-13.893c-1.384-9.628-9.571-17.685-19.287-18.235A22.894,22.894,0,0,0,219.48,95.7Z"/><path class="d" d="M211.644,113.9a3.178,3.178,0,0,1-1.493,2.272,2.481,2.481,0,0,1-1.841.188,2.769,2.769,0,0,1-1.864-1.672,3.239,3.239,0,0,1,1.115-3.646,2.563,2.563,0,0,1,3.457.488A2.858,2.858,0,0,1,211.644,113.9Z"/><path class="b" d="M235.7,200.089q1.695-.264,3.477-.556c1.61-.263,4.326-.975,5.2-2.024,1.111-1.334,1.054-2.744,1.114-4.729.46-15.271,1.348-26.657-1.32-39.685-.835-4.078-2-8.318-4.918-11.285s-6.632-3.636-12.923-2.412c-5.508,1.071-13.1,3.571-15.086,4.861a18.031,18.031,0,0,0-4.786,5.088l-.594-.386c-1.541-1-7.428-4.278-9.51-5.261a2.9,2.9,0,0,0-1.405-.193c-.613.089-.918.778-1.1,1.37a113.013,113.013,0,0,0-3.26,15.626,52.989,52.989,0,0,0-.294,16.169,7.835,7.835,0,0,0,3.217,5.125c1.488,1.243,3.712,1.112,5.6.682a16.7,16.7,0,0,0,5.48-2.381l-.068,6.594c-.007,3.107.129,6.669.129,6.669-.068,1.676.812,4.5,2.185,5.444,1.222.843,2.852,1.222,6.519,1.889C220.853,202.056,227.578,201.355,235.7,200.089Z"/><path class="a" d="M221.966,201.435a46.581,46.581,0,0,1-8.606-.741c-4.127-.75-5.673-1.137-6.963-2.229-.075,9.009.638,44.383,1.336,57.241l.214,1.067c.308,1.541,2.7,2.852,5.225,3.855a7.929,7.929,0,0,0,1.879.376c4.674.628,9.872.028,13.478-4.119,2.311,1.671,16.718,1.019,15.963-1.56-.465-12.777-.875-38.592-.5-50.05,0,0-.1-3.931-.188-7.27a13.638,13.638,0,0,1-4.623,1.528A110.641,110.641,0,0,1,221.966,201.435Z"/><path class="d" d="M204.4,200.941c.045,14.884.418,29.777.919,44.652.114,3.414.238,6.828.423,10.239.14,2.56,4.141,2.576,4,0-.808-14.858-1.011-29.767-1.235-44.642-.052-3.416-.1-6.832-.107-10.249-.008-2.573-4.008-2.578-4,0Z"/><path class="d" d="M241.989,205.275c-.443,13.93-.095,27.915.257,41.844.084,3.321.179,6.642.314,9.962.1,2.565,4.1,2.578,4,0-.566-13.933-.753-27.9-.713-41.843.01-3.321.037-6.643.142-9.963.082-2.575-3.918-2.572-4,0Z"/><path class="d" d="M226.3,219.465c-.566,11-.866,22.041-.98,33.056-.02,1.9-.087,3.82.055,5.716.191,2.551,4.193,2.572,4,0-.32-4.267-.026-8.636.071-12.906q.212-9.343.556-18.682c.087-2.4.175-4.79.3-7.184.132-2.572-3.868-2.565-4,0Z"/><path class="d" d="M206.018,257.3c.5,1.954,2.32,3.219,4.016,4.1a14.61,14.61,0,0,0,3.217,1.34,21.2,21.2,0,0,0,3.269.417,16.788,16.788,0,0,0,11.957-3.429,2.012,2.012,0,0,0,0-2.828,2.049,2.049,0,0,0-2.829,0,12.565,12.565,0,0,1-8.534,2.293,11.255,11.255,0,0,1-4.477-.959,10.712,10.712,0,0,1-2.133-1.222,5.647,5.647,0,0,1-.552-.542q.127.15-.069-.14c.061.165.059.135-.008-.089-.641-2.491-4.5-1.435-3.857,1.063Z"/><path class="d" d="M228.766,259.164a23.474,23.474,0,0,0,7.817.6,21.22,21.22,0,0,0,7.985-1.493,2.016,2.016,0,0,0,.717-2.736,2.046,2.046,0,0,0-2.736-.718c-.36.168.468-.157.065-.025-.1.032-.192.071-.289.1-.233.079-.471.148-.709.211-.553.145-1.116.254-1.68.346l-.42.064c-.24.037.319-.035-.076.011-.33.038-.659.076-.99.107q-1.026.1-2.055.137a36.5,36.5,0,0,1-3.914-.036c-.272-.019-.544-.041-.816-.068-.154-.015-.308-.037-.462-.051.541.049.054.007-.047-.009a9.555,9.555,0,0,1-1.326-.3,2,2,0,1,0-1.064,3.858Z"/><path class="d" d="M209.033,256.279a5.364,5.364,0,0,0-4.916.409,6.006,6.006,0,0,0-2.862,4.808,10.493,10.493,0,0,0,4.786,10.024,24.751,24.751,0,0,0,12.462,3.948c4.222.213,8.782-.681,10.685-4.921,1.634-3.642.976-7.937.112-11.685-.579-2.508-4.436-1.446-3.858,1.063a23.546,23.546,0,0,1,.73,5.828,8.732,8.732,0,0,1-.175,1.752c-.061.272-.126.542-.21.808-.026.082-.315.786-.122.372-1.716,3.7-6.969,3.084-10.281,2.359-3.249-.711-7.567-2.081-9.389-5.122a6.269,6.269,0,0,1-.69-4.541,1.629,1.629,0,0,1,.959-1.311c.268-.125.588-.128.85-.247.126-.058.271.087-.1-.09,2.31,1.108,4.342-2.34,2.019-3.454Z"/><path class="d" d="M242.56,257.081a25.206,25.206,0,0,0,.643,4.47,3.7,3.7,0,0,1,.1.607c0-.526-.016-.118,0,.021a5.969,5.969,0,0,1,.027.856c-.01.243-.033.483-.051.725-.035.469.058-.207-.03.22-.052.251-.1.5-.165.749-.021.074-.209.637-.144.474s-.195.349-.228.415q-.2.284,0,.027c-.055.068-.113.135-.174.2a5,5,0,0,1-.448.425c.314-.264-.171.1-.248.149-.18.109-.366.2-.555.3-.211.1-.219.1-.023.01-.085.032-.171.063-.257.091a9.85,9.85,0,0,1-1.233.3q-.222.035.087-.012c-.15.015-.3.03-.451.042-.249.021-.5.038-.748.049-.465.02-.93.021-1.394,0-.225-.011-.448-.034-.672-.05q-.361-.043-.046,0l-.291-.044c-.515-.083-1.024-.192-1.532-.31a2,2,0,1,0-1.063,3.857c4.141.969,10.055,1.109,12.545-3.09a9.427,9.427,0,0,0,1.042-5.789c-.125-.973-.3-1.935-.477-2.9-.037-.211-.074-.422-.109-.634q-.025-.151-.048-.3c-.033-.23-.03-.2.011.1a2.747,2.747,0,0,1-.065-.951,2,2,0,1,0-4,0Z"/><path class="d" d="M213.416,167.839c-2.708,3.73-5.582,7.653-9.436,10.281a15.09,15.09,0,0,1-6.12,2.575,4.61,4.61,0,0,1-5.03-2.627,7.874,7.874,0,0,1-.751-3.04c-.167-1.5-.253-3.013-.271-4.524a55.7,55.7,0,0,1,.636-9c.424-2.789.884-5.577,1.429-8.344.271-1.383.568-2.761.905-4.129q.281-1.14.6-2.269c.085-.3.174-.6.263-.9a4.322,4.322,0,0,0,.151-.51q.108-.342-.5.14c0-.02,1.75.795,1.892.87,1,.526,1.993,1.067,2.982,1.614,1.579.874,3.174,1.741,4.694,2.716,2.173,1.4,4.181-2.066,2.019-3.454-1.655-1.062-3.4-2-5.117-2.949-1.746-.961-3.819-2.464-5.826-2.733-3.9-.522-4.445,4.045-5.122,6.87-.8,3.353-1.378,6.755-1.927,10.157a73.377,73.377,0,0,0-1.072,10.486c-.025,1.595.02,3.191.153,4.78a18.011,18.011,0,0,0,.846,5.012c1,2.562,3.324,5.159,6.1,5.744,2.815.593,5.829-.3,8.374-1.476,5.855-2.7,9.907-8.195,13.588-13.267a2.016,2.016,0,0,0-.718-2.736,2.044,2.044,0,0,0-2.736.717Z"/><path class="d" d="M211.14,143.78a8.465,8.465,0,0,0-4.575-10.629c-3.685-1.72-8.337-1.265-11.071,1.972a9.087,9.087,0,0,0-2.142,6.388,2.045,2.045,0,0,0,2,2,2.019,2.019,0,0,0,2-2c-.015-.258-.023-.516-.014-.775,0-.084.094-.836.021-.407a9.4,9.4,0,0,1,.324-1.244q.126-.327,0-.025c.05-.109.1-.217.158-.324.082-.159.172-.315.267-.466.044-.071.479-.63.211-.318.156-.182.315-.358.487-.524q.195-.187.4-.358c-.314.257.269-.171.335-.212.211-.128.428-.242.65-.349-.347.168.185-.069.221-.081a7.067,7.067,0,0,1,.743-.211c.121-.027.242-.051.364-.072q-.338.039.021,0a10.7,10.7,0,0,1,1.3,0c.24.025.248.025.026,0,.123.02.246.042.368.068q.276.058.548.135c.241.068.478.149.713.237-.364-.136.309.15.377.186.166.086.329.179.489.277.06.037.664.455.359.222a9.2,9.2,0,0,1,.939.891c.148.18.159.188.036.025.073.1.143.2.211.3.136.207.246.424.37.637.2.349-.033-.235.1.219a5.678,5.678,0,0,1,.2.814c-.036-.279.008.375.009.451,0,.261-.013.518-.026.778q-.042.379-.005.123c-.022.142-.047.282-.075.422-.054.265-.122.525-.2.784a2,2,0,0,0,3.857,1.064Z"/><path class="d" d="M202.527,186.692c0,2.217.071,4.431.128,6.647a9.621,9.621,0,0,0,2.457,6.619c1.419,1.374,3.549,1.841,5.415,2.225a57.536,57.536,0,0,0,8.891,1.2c6.161.289,12.305-.638,18.371-1.609,2.432-.389,5.185-.717,7.243-2.2,2.384-1.717,2.393-4.625,2.474-7.279.363-11.885,1.144-23.811-.67-35.622-.851-5.545-1.952-11.715-5.891-15.985-3.43-3.718-8.233-4.238-13-3.574a59.8,59.8,0,0,0-16.5,4.786,16.763,16.763,0,0,0-6.266,5.811,57.132,57.132,0,0,0-5.326,9.209,2.058,2.058,0,0,0,.717,2.737,2.017,2.017,0,0,0,2.737-.718,59.1,59.1,0,0,1,4.1-7.411c1.341-2.053,2.843-4.326,4.986-5.623a23.159,23.159,0,0,1,4.572-1.883c2.305-.785,4.648-1.471,7.013-2.052,3.79-.932,8.665-2.184,12.269-.027,4,2.395,5.191,7.665,6.046,11.892,2.065,10.22,1.831,20.644,1.474,31.009q-.151,4.377-.291,8.754c-.026.818.029,1.976-.6,2.615a5.434,5.434,0,0,1-2.356.984,65.4,65.4,0,0,1-7.926,1.352c-2.66.382-5.336.684-8.021.816a49.029,49.029,0,0,1-8.676-.283,28.1,28.1,0,0,1-7.245-1.543,2.7,2.7,0,0,1-1.374-1.4,6.808,6.808,0,0,1-.618-2.776c-.058-2.224-.13-4.445-.129-6.669,0-2.574-4-2.579-4,0Z"/><path class="d" d="M234.958,139.46a29.109,29.109,0,0,1,3.745-4.385,44.234,44.234,0,0,0,4.226-5.309A24.76,24.76,0,0,0,247,116.532,23.8,23.8,0,0,0,235.77,96.5c-6.974-4.339-15.857-4.2-23.063-.472a25.275,25.275,0,0,0-13.34,21.2c-.477,9.916,5.863,21.4,16.988,21.064,2.568-.078,2.579-4.079,0-4-8.238.25-12.845-8.116-13.009-15.42a21.3,21.3,0,0,1,10.079-18.666c5.778-3.484,13.279-4.136,19.291-.859A19.768,19.768,0,0,1,242.951,115a20.84,20.84,0,0,1-3.585,12.908,43.1,43.1,0,0,1-4.1,5,28.571,28.571,0,0,0-3.767,4.526c-1.309,2.223,2.147,4.238,3.454,2.019Z"/><path class="d" d="M207.843,103.417a42.931,42.931,0,0,0,12.826,13.105,2.014,2.014,0,0,0,2.736-.718,2.045,2.045,0,0,0-.717-2.736q-.9-.592-1.772-1.229c-.138-.1-.275-.2-.412-.307l-.164-.124c.106.083.106.083,0,0q-.445-.348-.88-.709a40.327,40.327,0,0,1-3.095-2.852c-.982-1.005-1.9-2.063-2.781-3.159l-.127-.161c.082.107.081.107,0,0-.1-.136-.206-.273-.308-.41q-.307-.413-.6-.832-.651-.924-1.247-1.884a2,2,0,0,0-3.454,2.019Z"/><path class="d" d="M222.551,116.982c.1-.025.587-.081.095-.045.16-.012.317-.025.477-.025s.319.012.478.028c-.27-.028-.209-.029.02.026.155.037.306.1.461.135.219.05-.284-.165.039.014.141.078.284.149.42.234.1.065.4.361.112.066.111.112.234.224.349.332.289.274-.136-.274.089.1.071.116.145.228.21.348.042.076.081.153.117.232-.073-.178-.085-.2-.036-.065.034.144.093.284.13.428s.1.537.057.177a7.151,7.151,0,0,1,.02,1.095c-.015.43.081-.256-.024.2-.034.151-.063.3-.1.453-.047.18-.1.357-.163.533-.046.131-.165.38-.042.123a8.061,8.061,0,0,1-.549.955c-.316.483.24-.257-.136.187-.121.144-.245.286-.374.423a9.512,9.512,0,0,1-.756.719c-.087.075-.337.272-.116.105-.151.115-.308.223-.467.328a10.066,10.066,0,0,1-.978.572c-.166.084-.334.166-.5.238.32-.135-.111.031-.2.063a2,2,0,1,0,1.063,3.857c3.905-1.377,7.316-4.781,7.367-9.125a6.674,6.674,0,0,0-2.651-5.519,6.545,6.545,0,0,0-5.465-1.048,2,2,0,1,0,1.063,3.857Z"/><path class="d" d="M221.778,128.462a21.944,21.944,0,0,0,11.785,9,2.016,2.016,0,0,0,2.461-1.4,2.047,2.047,0,0,0-1.4-2.46c-.517-.17-1.022-.366-1.531-.56.449.171-.055-.025-.117-.053l-.293-.133q-.366-.169-.723-.353a23.9,23.9,0,0,1-2.779-1.729c-.244-.171.363.294-.038-.028-.1-.083-.208-.167-.31-.251-.206-.171-.408-.345-.606-.524q-.6-.54-1.148-1.13-.278-.3-.541-.606c-.089-.1-.176-.208-.262-.314-.033-.039-.317-.4-.15-.183s-.113-.151-.143-.192c-.082-.112-.163-.224-.242-.337-.177-.252-.346-.508-.512-.766a2,2,0,1,0-3.454,2.019Z"/></svg>